simulation
nRows=43
nColumns=15
endheader
time  TH_x TH_y TH_z SC_y  SC_z  SC_x  AC_y  AC_z  AC_x  GH_y  GH_z  GH_yy  EL_x  PS_y
0.500028  0.000000  0.000000  0.000000  -29.835158  19.666400  -15.000000  56.468059  49.840975  24.616409  2.244978  65.691514  -33.969277  26.853157  126.979770
0.500084  0.000000  0.000000  0.000000  -29.835158  19.666400  -11.578947  58.538773  46.954864  21.848351  2.244978  65.691514  -33.969277  26.853157  126.979770
0.500140  0.000000  0.000000  0.000000  -29.835158  19.666400  -8.157895  60.309119  44.008914  19.366510  2.244978  65.691514  -33.969277  26.853157  126.979770
0.500195  0.000000  0.000000  0.000000  -29.835158  19.666400  -4.736842  61.826771  41.014357  17.121522  2.244978  65.691514  -33.969277  26.853157  126.979770
0.500251  0.000000  0.000000  0.000000  -29.835158  19.666400  -1.315789  63.130173  37.980053  15.073127  2.244978  65.691514  -33.969277  26.853157  126.979770
0.500307  0.000000  0.000000  0.000000  -29.835158  19.666400  2.105263  64.250331  34.913066  13.188350  2.244978  65.691514  -33.969277  26.853157  126.979770
0.500363  0.000000  0.000000  0.000000  -29.835158  19.666400  5.526316  65.212294  31.819069  11.440018  2.244978  65.691514  -33.969277  26.853157  126.979770
0.500419  0.000000  0.000000  0.000000  -29.835158  19.666400  8.947368  66.036320  28.702735  9.805534  2.244978  65.691514  -33.969277  26.853157  126.979770
0.500474  0.000000  0.000000  0.000000  -29.835158  19.666400  12.368421  66.738815  25.567899  8.265941  2.244978  65.691514  -33.969277  26.853157  126.979770
0.500530  0.000000  0.000000  0.000000  -29.835158  19.666400  15.789474  67.333059  22.417781  6.805148  2.244978  65.691514  -33.969277  26.853157  126.979770
0.500586  0.000000  0.000000  0.000000  -29.835158  19.666400  19.210526  67.829761  19.255117  5.409336  2.244978  65.691514  -33.969277  26.853157  126.979770
0.500642  0.000000  0.000000  0.000000  -29.835158  19.666400  22.631579  68.237514  16.082271  4.066466  2.244978  65.691514  -33.969277  26.853157  126.979770
0.500698  0.000000  0.000000  0.000000  -29.835158  19.666400  26.052632  68.563108  12.901304  2.765886  2.244978  65.691514  -33.969277  26.853157  126.979770
0.500753  0.000000  0.000000  0.000000  -29.835158  19.666400  29.473684  68.811812  9.714081  1.498036  2.244978  65.691514  -33.969277  26.853157  126.979770
0.500809  0.000000  0.000000  0.000000  -29.835158  19.666400  32.894737  68.987545  6.522279  0.254144  2.244978  65.691514  -33.969277  26.853157  126.979770
0.500865  0.000000  0.000000  0.000000  -29.835158  19.666400  36.315789  69.093022  3.327453  -0.973987  2.244978  65.691514  -33.969277  26.853157  126.979770
0.500921  0.000000  0.000000  0.000000  -29.835158  19.666400  39.736842  69.129861  0.131139  -2.194160  2.244978  65.691514  -33.969277  26.853157  126.979770
0.500977  0.000000  0.000000  0.000000  -29.835158  19.666400  43.157895  69.098621  -3.065244  -3.414033  2.244978  65.691514  -33.969277  26.853157  126.979770
0.501032  0.000000  0.000000  0.000000  -29.835158  19.666400  46.578947  68.998811  -6.260238  -4.641210  2.244978  65.691514  -33.969277  26.853157  126.979770
0.501088  0.000000  0.000000  0.000000  -29.835158  19.666400  50.000000  68.828936  -9.452347  -5.883506  2.244978  65.691514  -33.969277  26.853157  126.979770
0.501144  0.000000  0.000000  0.000000  -40.727443  5.818258  -15.000000  73.183033  54.511881  1.092380  -25.793041  62.755406  2.984687  29.779444  122.627761
0.501200  0.000000  0.000000  0.000000  -40.727443  5.818258  -11.578947  74.443034  51.226175  -0.487347  -25.793041  62.755406  2.984687  29.779444  122.627761
0.501256  0.000000  0.000000  0.000000  -40.727443  5.818258  -8.157895  75.485212  47.922046  -1.855798  -25.793041  62.755406  2.984687  29.779444  122.627761
0.501311  0.000000  0.000000  0.000000  -40.727443  5.818258  -4.736842  76.355247  44.603614  -3.059441  -25.793041  62.755406  2.984687  29.779444  122.627761
0.501367  0.000000  0.000000  0.000000  -40.727443  5.818258  -1.315789  77.086666  41.273911  -4.132666  -25.793041  62.755406  2.984687  29.779444  122.627761
0.501423  0.000000  0.000000  0.000000  -40.727443  5.818258  2.105263  77.704541  37.935209  -5.101479  -25.793041  62.755406  2.984687  29.779444  122.627761
0.501479  0.000000  0.000000  0.000000  -40.727443  5.818258  5.526316  78.227908  34.589257  -5.985932  -25.793041  62.755406  2.984687  29.779444  122.627761
0.501535  0.000000  0.000000  0.000000  -40.727443  5.818258  8.947368  78.671412  31.237425  -6.801780  -25.793041  62.755406  2.984687  29.779444  122.627761
0.501590  0.000000  0.000000  0.000000  -40.727443  5.818258  12.368421  79.046427  27.880781  -7.561624  -25.793041  62.755406  2.984687  29.779444  122.627761
0.501646  0.000000  0.000000  0.000000  -40.727443  5.818258  15.789474  79.361838  24.520232  -8.275699  -25.793041  62.755406  2.984687  29.779444  122.627761
0.501702  0.000000  0.000000  0.000000  -40.727443  5.818258  19.210526  79.624635  21.156495  -8.952493  -25.793041  62.755406  2.984687  29.779444  122.627761
0.501758  0.000000  0.000000  0.000000  -40.727443  5.818258  22.631579  79.840309  17.790185  -9.599168  -25.793041  62.755406  2.984687  29.779444  122.627761
0.501814  0.000000  0.000000  0.000000  -40.727443  5.818258  26.052632  80.013146  14.421839  -10.221905  -25.793041  62.755406  2.984687  29.779444  122.627761
0.501870  0.000000  0.000000  0.000000  -40.727443  5.818258  29.473684  80.146408  11.051904  -10.826063  -25.793041  62.755406  2.984687  29.779444  122.627761
0.501925  0.000000  0.000000  0.000000  -40.727443  5.818258  32.894737  80.242535  7.680798  -11.416466  -25.793041  62.755406  2.984687  29.779444  122.627761
0.501981  0.000000  0.000000  0.000000  -40.727443  5.818258  36.315789  80.303252  4.308895  -11.997572  -25.793041  62.755406  2.984687  29.779444  122.627761
0.502037  0.000000  0.000000  0.000000  -40.727443  5.818258  39.736842  80.329621  0.936561  -12.573531  -25.793041  62.755406  2.984687  29.779444  122.627761
0.502093  0.000000  0.000000  0.000000  -40.727443  5.818258  43.157895  80.322095  -2.435869  -13.148385  -25.793041  62.755406  2.984687  29.779444  122.627761
0.502149  0.000000  0.000000  0.000000  -40.727443  5.818258  46.578947  80.280548  -5.808055  -13.726131  -25.793041  62.755406  2.984687  29.779444  122.627761
0.502204  0.000000  0.000000  0.000000  -40.727443  5.818258  50.000000  80.204251  -9.179639  -14.310844  -25.793041  62.755406  2.984687  29.779444  122.627761
0.502260  0.000000  0.000000  0.000000  -40.533171  17.970121  -15.000000  46.064241  51.981852  28.316772  6.980398  71.941371  11.452045  24.158829  129.195616
0.502316  0.000000  0.000000  0.000000  -40.533171  17.970121  -11.578947  48.892379  49.459352  24.664547  6.980398  71.941371  11.452045  24.158829  129.195616
0.502372  0.000000  0.000000  0.000000  -40.533171  17.970121  -8.157895  51.342097  46.833273  21.376935  6.980398  71.941371  11.452045  24.158829  129.195616
